<?xml version="1.0" encoding="utf-8"?>
<!-- Generator: Adobe Illustrator 27.7.0, SVG Export Plug-In . SVG Version: 6.00 Build 0)  -->
<svg version="1.1" id="레이어_1" xmlns="http://www.w3.org/2000/svg" xmlns:xlink="http://www.w3.org/1999/xlink" x="0px"
	 y="0px" viewBox="0 0 482.3 128.7" style="enable-background:new 0 0 482.3 128.7;" xml:space="preserve">
<style type="text/css">
	.st0{fill:#F2A0AB;}
</style>
<path class="st0" d="M301.5,64.6l-6-0.3c0.4-7.9,0-16.1-1-17.7c-0.2-0.2-0.5-0.5-0.7-0.8c-2-2.2-5.3-5.8-11.3-5.8H44.7v-6h237.7
	c8.6,0,13.4,5.2,15.7,7.7c0.2,0.3,0.5,0.5,0.6,0.7C302.1,45.6,301.9,57.7,301.5,64.6z"/>
<g>
	<g>
		<path class="st0" d="M44.8,43.4h20.7c5.2,0,9.3,1.3,12.2,3.9s4.4,6.1,4.4,10.6c0,1.8-0.5,3.5-1.6,5.2c-1.1,1.7-2.4,2.8-4,3.4
			c2.3,0.8,4.1,2.1,5.6,4.2c1.5,2,2.2,4.2,2.2,6.6c0,3-0.7,5.6-2,7.8c-1.4,2.2-3.3,3.9-5.9,5.1S70.8,92,67.2,92H44.7L44.8,43.4
			L44.8,43.4z M65,63.1c2,0,3.6-0.5,4.7-1.3c1.1-0.9,1.7-2.2,1.7-3.8c0-1.7-0.6-3-1.7-3.9c-1.1-0.9-2.7-1.3-4.7-1.3h-9.6v10.5
			L65,63.1L65,63.1z M66.8,82.8c2.1,0,3.8-0.5,5-1.4c1.2-1,1.8-2.3,1.8-4.1s-0.6-3.1-1.8-4.1s-2.9-1.4-5-1.4H55.4v11L66.8,82.8
			L66.8,82.8z"/>
		<path class="st0" d="M114.3,92L105,76.7h-8.5V92H85.9V43.4h19.2c4,0,7.4,0.7,10.3,2.1c2.9,1.4,5.1,3.3,6.6,5.8
			c1.5,2.5,2.3,5.4,2.3,8.8c0,3.3-0.8,6.3-2.2,8.8s-3.7,4.4-6.5,5.8L126.6,92H114.3z M96.5,67.1h8.1c2.9,0,5.1-0.6,6.6-1.8
			c1.6-1.2,2.4-3,2.4-5.2s-0.8-4-2.4-5.2c-1.6-1.2-3.8-1.8-6.6-1.8h-8.1V67.1z"/>
		<path class="st0" d="M156.7,82.6h-18.5l-3.3,9.4h-11l18.5-48.7h11.1L171.9,92H160L156.7,82.6z M153.4,73.2l-6-17l-6,17H153.4z"/>
		<path class="st0" d="M182.7,43.4V92H172V43.4H182.7z"/>
		<path class="st0" d="M186.4,43.4h8.9l23.8,29.3V42.8h10.7v48.7h-8.9l-23.8-29.3V92h-10.7V43.4z"/>
		<path class="st0" d="M251,43.8c5.3,0,9.9,1,13.7,3c3.8,2,6.8,4.8,8.8,8.4s3,7.8,3,12.6s-1,9-3,12.5s-4.9,6.4-8.8,8.4
			c-3.9,2-8.4,3-13.7,3h-16.6V43.8H251z M265.2,81.2c3.4-3.2,5.1-7.7,5.1-13.4c0-5.8-1.7-10.3-5.1-13.5s-8.1-4.8-14-4.8h-10.7v36.5
			h10.7C257.1,85.9,261.8,84.3,265.2,81.2z"/>
		<path class="st0" d="M285.4,43.8V71c0,3.2,0.6,6,1.7,8.4c1.1,2.4,2.8,4.3,5,5.6s4.7,2,7.6,2s5.5-0.7,7.6-2s3.8-3.2,5-5.6
			c1.1-2.4,1.7-5.2,1.7-8.4V43.8h6.1V71c0,4.3-0.8,8.2-2.5,11.4c-1.7,3.3-4.1,5.8-7.1,7.6s-6.7,2.7-10.8,2.7
			c-4.1,0-7.7-0.9-10.8-2.7c-3.1-1.8-5.5-4.3-7.2-7.6c-1.7-3.3-2.5-7.1-2.5-11.4V43.8H285.4z"/>
		<path class="st0" d="M330.4,43.8l18.1,32.5l18.1-32.5h5.4v47.8h-6.1V56.3l-15.1,27.2h-4.5l-15.1-27.2v35.3H325V43.8H330.4z"/>
		<path class="st0" d="M393.9,43.8c4,0,7.4,0.7,10.3,2.1c2.9,1.4,5.1,3.3,6.7,5.8s2.3,5.4,2.3,8.7s-0.8,6.2-2.3,8.7
			c-1.5,2.5-3.8,4.4-6.7,5.8c-2.9,1.4-6.4,2.1-10.3,2.1h-10.5v14.6h-6.1V43.8H393.9z M403.5,68.5c2.4-1.9,3.6-4.6,3.6-8.1
			s-1.2-6.2-3.6-8.1c-2.4-1.9-5.8-2.8-10-2.8h-10v21.9h10C397.7,71.3,401.1,70.4,403.5,68.5z"/>
		<path class="st0" d="M441.8,44.5c2.7,1.2,4.9,2.9,6.6,5.1c1.6,2.2,2.6,4.7,2.8,7.4h-6.3c-0.3-2.6-1.6-4.8-3.8-6.5
			c-2.2-1.7-5.1-2.5-8.6-2.5c-3.6,0-6.4,0.7-8.5,2.1c-2,1.4-3.1,3.2-3.1,5.3c0,1.6,0.5,3,1.5,4.1c1,1.1,2.5,2,4.5,2.8
			s4.8,1.6,8.3,2.3c5.7,1.2,9.8,3,12.3,5.3c2.6,2.3,3.8,5.2,3.8,8.9c0,2.8-0.8,5.2-2.5,7.3c-1.6,2.1-3.9,3.7-6.7,4.8
			c-2.8,1.1-6,1.7-9.5,1.7c-3.6,0-6.9-0.6-9.8-1.9c-2.9-1.3-5.2-3.1-6.9-5.4c-1.7-2.3-2.7-5-2.9-8.1h6.3c0.3,2.9,1.7,5.3,4.1,7.2
			c2.4,1.8,5.6,2.8,9.5,2.8c2.3,0,4.4-0.3,6.2-1s3.3-1.6,4.3-2.9c1-1.2,1.5-2.6,1.5-4.2c0-1.8-0.5-3.2-1.5-4.4c-1-1.2-2.5-2.1-4.5-3
			s-4.9-1.6-8.5-2.4c-5.5-1.2-9.5-2.8-12.1-5c-2.6-2.2-3.9-5.2-3.9-9.1c0-2.6,0.8-4.8,2.3-6.8s3.7-3.4,6.4-4.5
			c2.7-1,5.8-1.5,9.3-1.5C436,42.6,439,43.3,441.8,44.5z"/>
	</g>
</g>
<circle class="st0" cx="299.8" cy="76.4" r="5.1"/>
</svg>
