<?xml version="1.0" encoding="utf-8"?>
<!-- Generator: Adobe Illustrator 28.0.0, SVG Export Plug-In . SVG Version: 6.00 Build 0)  -->
<svg version="1.1" id="레이어_1" xmlns="http://www.w3.org/2000/svg" xmlns:xlink="http://www.w3.org/1999/xlink" x="0px"
	 y="0px" viewBox="0 0 595.28 128.67" style="enable-background:new 0 0 595.28 128.67;" xml:space="preserve">
<style type="text/css">
	.st0{fill:#F2A0AB;}
	.st1{fill:#5D2155;}
	.st2{fill:none;stroke:#F2A0AB;stroke-width:5;stroke-miterlimit:10;}
</style>
<path class="st0" d="M414.52,64.58l-5.99-0.33c0.44-7.9-0.03-16.12-1-17.71c-0.21-0.22-0.45-0.48-0.71-0.76
	c-1.99-2.16-5.33-5.77-11.34-5.77H134.11v-6h261.36c8.63,0,13.43,5.2,15.74,7.69c0.24,0.26,0.46,0.49,0.65,0.69
	C415.07,45.65,414.9,57.7,414.52,64.58z"/>
<g>
	<path class="st0" d="M88.66,36.27c-5.13,1.66-10.56,2.77-13.43,7.34c-1.21,1.93-2.35,3.14-4,5.67c-1.47,2.25-5.85,6.07-6.56,8.67
		c-2.52,9.23-3.9,18.77,1.21,26.86c1.7,2.69,4.82,5.16,7.82,4.1c0.14,3.17,1.33,6.29,3.35,8.74c1.07,1.3,2.45,2.45,4.1,2.76
		c0.99,0.19,2.02,0.05,3.02-0.1c8.52-1.33,16.77-4.45,24.05-9.08c1.56-1,3.21-2.1,5.06-2.1c0.95,0,1.88,0.29,2.78,0.58
		c8.51,2.67,17.22,4.69,26.04,6.02c1.01,0.15,2.05,0.14,3.03-0.15c4.59-1.39,3.72-6.69,1.36-9.77c-1.48-1.92-3.43-3.54-4.82-5.5
		c-0.84-1.17-0.44-2.81,0.82-3.52c1.75-0.98,3.64-1.71,5.6-2.15c1.02-0.23,2.1-0.4,2.91-1.05c1.32-1.05,1.48-2.96,1.53-4.65
		c0.15-4.73-0.38-8.98-2.18-13.32c-0.97-2.33-2.39-4.44-4.04-6.35c-4.21-4.88-7.93-10.83-13.33-14.47
		c-13.97-9.43-33.6-8.73-47.7,0.52"/>
</g>
<g>
	<g>
		<path class="st1" d="M67.4,85.89c-5.16-4.49-4.38-11.25-3.2-17.33c1.07-5.49,2.55-11.65,6.46-15.89c1.58-1.71,2.79-2.97,5.14-2.38
			c3,0.74,3.49,4.17,2.67,6.78c-0.35,1.11-2.28,4.01-3.79,3.96c-2.97-0.1-2.82-2.59-3.11-4.32c-0.98-5.95,5.07-11.01,9.19-14.3
			c4.65-3.71,9.99-6.62,15.63-8.51c2.32-0.78,4.7-1.41,7.11-1.86c4.19-0.78,16.06-0.1,10.38,6.99c-1.82,2.27-7.14,4.44-10.26,2.93
			c-5.22-2.52,0.61-7.68,2.98-8.98c5.44-2.98,11.91-2.11,17.61-0.42c5.57,1.66,10.97,4.55,14.74,9.06
			c4.04,4.83,7.83,14.17-0.48,16.66c-4.67,1.4-11.94,1.24-16.21-1.26c-4.09-2.39-4.28-7.23,0.02-9.5c2.92-1.54,6.42-0.98,9.56-0.61
			c7.07,0.82,12.79,3.26,16.14,9.81c1.26,2.47,2.15,5.22,2.23,8.01c0.1,3.34-1.15,10.92-6.24,10.25c-2.13-0.28-4.59-2.4-6.41-3.49
			c-2.38-1.42-4.72-2.89-7.08-4.33c-4.69-2.87-9.41-5.71-14.43-7.96c-7.21-3.24-16.42-6.38-24.16-3.07
			c-6.19,2.65-8.86,9.99-2.35,14.18c3.78,2.43,14.14,3.62,15.53-2.37c1.64-7.08-11.96-8.22-16.19-7.57
			c-7.96,1.21-12.32,9.93-14.71,16.79c-2.44,6.97-3.6,18.44,2.3,24.26c5.99,5.9,10.35-4.41,13.41-7.74
			c8.11-8.85,18.02-15.71,30.38-15.12c6.5,0.31,13.97,1.16,19.56,4.78c1.92,1.24,6.16,4.63,6.05,7.28
			c-0.16,4.11-8.28,1.59-10.16,1.26c-6.2-1.09-11.85-3.37-17.88-4.99c-3.93-1.06-8.44-1.09-11.06,2.59
			c-4.67,6.56,5.83,15.79,10.52,19.01c10.27,7.06,23.73,9.24,35.81,10.98c2.2,0.32,3.15-3.05,0.93-3.37
			c-14.41-2.08-33.09-4.78-42.18-17.6c-0.83-1.17-2.38-3.26-2.55-4.67c-0.59-4.88,4.84-4.18,7.61-3.57
			c3.37,0.75,6.63,2.33,9.98,3.23c5.39,1.46,12.97,3.83,18.63,2.83c3.41-0.6,4.6-3.51,3.74-6.64c-1.34-4.83-5.73-8.61-10.08-10.71
			c-10.39-5.02-26.34-6.19-36.48-0.23c-5.07,2.98-10.03,7.15-14.16,11.3c-2.03,2.03-3.67,4.21-5.24,6.59
			c-1.18,1.78-1.52,3.8-4.65,1.73c-1.51-1-2.19-4.74-2.52-6.47c-1.23-6.48,0.72-13.29,3.74-19c1.81-3.43,4.11-7.43,8.04-8.74
			c2.17-0.72,4.53-0.49,6.73-0.1c1.08,0.19,5.6,0.76,6.19,1.74c2.65,4.44-8.94,2.46-10.27,0.88c-5.59-6.58,6.3-8.49,9.46-8.39
			c7.63,0.26,15.1,4,21.61,7.66c5.79,3.25,11.3,6.95,17.06,10.24c3.79,2.16,7.74,3.92,11.17,0.27c7.19-7.67,3.7-21.82-3.69-28.07
			c-4.07-3.45-9.98-4.56-15.12-5.06c-5.06-0.49-10.43-0.44-13.91,3.94c-2.22,2.79-2.28,6.57-0.29,9.51
			c2.82,4.17,8.14,5.22,12.8,5.57c4.71,0.35,10.29,0.25,14.21-2.76c4.12-3.15,3.95-7.31,2.46-11.92
			c-3.68-11.34-15.2-17.89-26.4-19.71c-4.84-0.78-9.91-0.62-14.37,1.62c-3.89,1.96-8.57,6.51-7.59,11.4
			c1.73,8.61,17.3,4.54,20.08-1.36c1.66-3.52,0.56-7.26-2.51-9.53c-4.57-3.39-11.02-2.01-16.11-0.72
			c-7.01,1.77-13.66,4.97-19.45,9.3c-4.59,3.44-10,7.93-11.5,13.75c-1.05,4.05-0.42,9.98,4.08,11.71c4.08,1.57,7.3-1.38,8.83-4.89
			c1.88-4.31,0.93-10.68-4-12.6c-4.74-1.84-9,2.87-11.31,6.41c-3.63,5.55-5.13,12.59-5.95,19.08c-0.75,6.03,0.06,12.08,4.85,16.24
			C66.62,89.84,69.11,87.37,67.4,85.89L67.4,85.89z"/>
	</g>
</g>
<g>
	<g>
		<path class="st1" d="M148.1,114.02c2.33,2.57,5.19,4.41,8.45,5.58c0.16-1.15,0.31-2.29,0.47-3.44c-3.81,0.19-7.41,1.18-10.77,2.97
			c0.86,0.66,1.71,1.32,2.57,1.98c0.93-2.42,1.7-4.89,2.19-7.44c0.42-2.2-2.95-3.14-3.37-0.93c-0.48,2.55-1.26,5.02-2.19,7.44
			c-0.58,1.52,1.34,2.63,2.57,1.98c2.82-1.5,5.82-2.33,9.01-2.49c2.01-0.1,2.32-2.77,0.47-3.44c-2.7-0.97-4.98-2.56-6.91-4.68
			C149.06,109.88,146.59,112.36,148.1,114.02L148.1,114.02z"/>
	</g>
</g>
<g>
	<g>
		<path class="st1" d="M64.67,86.92c-1.49,6.42-6.52,9.93-12.8,11.19c-3.24,0.65-8.67,1.16-9.3-2.95c-0.32-2.08,1.79-5.03,2.69-6.89
			c0.54-1.12-0.09-2.7-1.51-2.63c-3.36,0.15-6.04,2.09-9.09,3.3c-1.09,0.43-1.9,2-0.77,2.92c3.6,2.95,8.65,3.54,13.04,4.73
			c1.21,0.33,2.61-0.86,2.15-2.15c-1.09-3.07-1.78-5.88-4.09-8.28c-1.56-1.63-4.04,0.85-2.47,2.47c1.86,1.93,2.33,4.31,3.19,6.74
			c0.72-0.72,1.44-1.44,2.15-2.15c-3.53-0.95-8.61-1.46-11.49-3.83c-0.26,0.97-0.51,1.95-0.77,2.92c2.62-1.04,5.31-3.05,8.16-3.17
			c-0.5-0.88-1.01-1.76-1.51-2.63c-1.41,2.94-3.63,6.12-3.25,9.53c0.47,4.29,3.9,5.99,7.89,6.07c9.43,0.17,18.93-4.6,21.17-14.25
			C68.56,85.66,65.18,84.73,64.67,86.92L64.67,86.92z"/>
	</g>
</g>
<g>
	<g>
		<path class="st1" d="M75.43,47.72c2.74-4.91,6.9-8.76,9.1-14.08c1.84-4.46,4.07-12.56,2.49-17.41c-3.03-9.27-16.4,0.92-19.21,5.05
			c-0.92,1.35,0.59,2.87,1.98,2.57c2.13-0.45,4.25-0.83,6.42-1.05c1.7-0.17,2.42-2.27,0.88-3.26c-2.67-1.73-5.05-3.86-7.72-5.59
			c-1.13-0.73-2.64,0.23-2.63,1.51c0.01,2.55-0.01,5.06,1.02,7.42c0.89,2.06,3.91,0.28,3.02-1.77c-0.72-1.67-0.53-3.87-0.54-5.65
			c-0.88,0.5-1.76,1.01-2.63,1.51c2.67,1.73,5.05,3.86,7.72,5.59c0.29-1.09,0.59-2.17,0.88-3.26c-2.47,0.25-4.91,0.66-7.35,1.17
			c0.66,0.86,1.32,1.71,1.98,2.57c1.86-2.73,5.4-5.92,8.82-6.53c6.11-1.1,3.62,8.67,2.82,11.98c-1.7,7.05-6.67,11.39-10.06,17.45
			C71.31,47.92,74.33,49.69,75.43,47.72L75.43,47.72z"/>
	</g>
</g>
<g>
	<g>
		<path class="st1" d="M105.35,33.57c5.66-7.99,11.82-16,19.39-22.29c-1-0.41-1.99-0.82-2.99-1.24c-0.26,2.88-0.27,5.86-0.92,8.68
			c0.86-0.35,1.71-0.7,2.57-1.05c-3.98-2.19-6.75-5.2-8.41-9.46c-0.56,0.74-1.12,1.48-1.69,2.22c3.41,0.38,6.78,1.01,10.2,1.36
			c2.24,0.23,2.22-3.27,0-3.5c-3.41-0.36-6.79-0.99-10.2-1.36c-1.07-0.12-2.07,1.22-1.69,2.22c1.97,5.06,5.24,8.93,10.02,11.55
			c0.95,0.52,2.31,0.08,2.57-1.05c0.73-3.14,0.76-6.41,1.05-9.61c0.15-1.66-1.94-2.1-2.99-1.24c-7.79,6.47-14.1,14.77-19.93,23
			C101.02,33.64,104.06,35.39,105.35,33.57L105.35,33.57z"/>
	</g>
</g>
<g>
	<g>
		<path class="st0" d="M157.76,43.37h20.73c5.23,0,9.3,1.29,12.21,3.88c2.91,2.59,4.36,6.13,4.36,10.63c0,1.79-0.53,3.53-1.58,5.23
			c-1.05,1.69-2.38,2.84-3.98,3.43c2.26,0.76,4.13,2.14,5.59,4.15c1.46,2.01,2.2,4.21,2.2,6.6c0,2.99-0.67,5.59-2.02,7.82
			c-1.35,2.23-3.31,3.94-5.89,5.14s-5.62,1.79-9.14,1.79h-22.49V43.37z M178.02,63.07c2.03,0,3.6-0.45,4.71-1.34
			c1.11-0.9,1.67-2.18,1.67-3.85c0-1.71-0.56-3.02-1.67-3.91c-1.11-0.9-2.68-1.34-4.71-1.34h-9.6v10.45H178.02z M179.78,82.78
			c2.15,0,3.83-0.48,5.04-1.43c1.21-0.96,1.82-2.31,1.82-4.06c0-1.75-0.61-3.1-1.82-4.06c-1.21-0.96-2.89-1.43-5.04-1.43h-11.36
			v10.99H179.78z"/>
		<path class="st0" d="M227.27,92.04l-9.25-15.35h-8.49v15.35h-10.66V43.37h19.21c3.98,0,7.42,0.69,10.31,2.06
			c2.89,1.37,5.09,3.31,6.62,5.82c1.52,2.51,2.28,5.43,2.28,8.78c0,3.34-0.75,6.26-2.25,8.75c-1.5,2.49-3.66,4.41-6.47,5.76
			l11.07,17.5H227.27z M209.52,67.07h8.08c2.85,0,5.07-0.61,6.65-1.82c1.58-1.21,2.37-2.96,2.37-5.23c0-2.27-0.79-4.01-2.37-5.23
			c-1.58-1.21-3.8-1.82-6.65-1.82h-8.08V67.07z"/>
		<path class="st0" d="M269.66,82.6h-18.5l-3.34,9.44h-11.01l18.5-48.67h11.07l18.5,48.67H273L269.66,82.6z M266.38,73.17
			l-5.97-16.96l-5.97,16.96H266.38z"/>
		<path class="st0" d="M295.66,43.37v48.67h-10.66V43.37H295.66z"/>
		<path class="st0" d="M299.41,43.37h8.9l23.83,29.26V42.77h10.66v48.67h-8.9l-23.83-29.26v29.86h-10.66V43.37z"/>
		<path class="st0" d="M364,43.79c5.31,0,9.88,1,13.7,2.99c3.83,1.99,6.75,4.79,8.78,8.39c2.03,3.6,3.04,7.79,3.04,12.57
			s-1,8.96-3.02,12.54s-4.94,6.37-8.78,8.36c-3.85,1.99-8.42,2.99-13.73,2.99h-16.63V43.79H364z M378.23,81.17
			c3.4-3.18,5.09-7.66,5.09-13.44c0-5.77-1.7-10.27-5.09-13.5s-8.08-4.84-14.05-4.84h-10.66v36.55h10.66
			C370.15,85.94,374.83,84.35,378.23,81.17z"/>
		<path class="st0" d="M398.43,43.79v27.23c0,3.19,0.58,5.98,1.73,8.39c1.15,2.41,2.81,4.28,4.98,5.61c2.17,1.33,4.71,2,7.64,2
			s5.46-0.67,7.61-2c2.15-1.33,3.8-3.2,4.95-5.61c1.15-2.41,1.73-5.2,1.73-8.39V43.79h6.15v27.23c0,4.34-0.84,8.15-2.52,11.44
			c-1.68,3.28-4.06,5.82-7.14,7.61s-6.68,2.69-10.77,2.69c-4.1,0-7.7-0.9-10.8-2.69c-3.1-1.79-5.5-4.33-7.17-7.61
			c-1.68-3.28-2.52-7.1-2.52-11.44V43.79H398.43z"/>
		<path class="st0" d="M443.35,43.79l18.09,32.48l18.09-32.48h5.39v47.83h-6.15V56.33l-15.11,27.23h-4.45l-15.11-27.23v35.29h-6.15
			V43.79H443.35z"/>
		<path class="st0" d="M506.88,43.79c3.98,0,7.43,0.69,10.34,2.06c2.91,1.37,5.13,3.31,6.67,5.82c1.54,2.51,2.31,5.41,2.31,8.72
			c0,3.31-0.77,6.21-2.31,8.72c-1.54,2.51-3.77,4.45-6.67,5.82c-2.91,1.37-6.35,2.06-10.34,2.06H496.4v14.63h-6.15V43.79H506.88z
			 M516.46,68.48c2.4-1.89,3.6-4.59,3.6-8.09c0-3.5-1.2-6.2-3.6-8.09c-2.4-1.89-5.75-2.84-10.04-2.84H496.4v21.86h10.01
			C510.71,71.31,514.06,70.37,516.46,68.48z"/>
		<path class="st0" d="M554.78,44.47c2.73,1.21,4.92,2.92,6.56,5.11c1.64,2.19,2.56,4.66,2.75,7.4h-6.32
			c-0.35-2.63-1.63-4.78-3.84-6.45c-2.21-1.67-5.08-2.51-8.64-2.51c-3.59,0-6.41,0.69-8.46,2.06c-2.05,1.37-3.07,3.16-3.07,5.34
			c0,1.63,0.49,3,1.46,4.09c0.98,1.1,2.49,2.04,4.54,2.84c2.05,0.8,4.83,1.57,8.34,2.33c5.66,1.23,9.77,3,12.33,5.28
			c2.56,2.29,3.84,5.25,3.84,8.87c0,2.79-0.82,5.23-2.46,7.31c-1.64,2.09-3.89,3.7-6.73,4.84c-2.85,1.13-6.01,1.7-9.49,1.7
			c-3.63,0-6.88-0.64-9.75-1.91c-2.87-1.27-5.16-3.07-6.88-5.37c-1.72-2.31-2.67-5-2.87-8.06h6.32c0.31,2.95,1.69,5.33,4.13,7.17
			c2.44,1.83,5.59,2.75,9.46,2.75c2.3,0,4.37-0.34,6.21-1.02s3.26-1.63,4.28-2.87c1.01-1.23,1.52-2.63,1.52-4.18
			c0-1.75-0.49-3.2-1.46-4.36c-0.98-1.15-2.49-2.14-4.54-2.96c-2.05-0.82-4.87-1.6-8.46-2.36c-5.47-1.15-9.5-2.83-12.09-5.02
			c-2.6-2.19-3.89-5.21-3.89-9.08c0-2.59,0.77-4.85,2.31-6.78c1.54-1.93,3.68-3.41,6.41-4.45c2.73-1.03,5.84-1.55,9.31-1.55
			C548.99,42.65,552.05,43.26,554.78,44.47z"/>
	</g>
</g>
<circle class="st0" cx="412.75" cy="76.41" r="5.14"/>
<polygon class="st1" points="115.33,10.17 118.28,15.56 121.33,17.28 122.83,11.33 "/>
<polygon class="st1" points="42.89,88.94 36.64,91.61 42.19,94.61 46.75,95.13 "/>
</svg>
